HIERARCHY
ROOT joint_Root
{
	OFFSET 0.0 0.0 0.0
	CHANNELS 6 Xposition Yposition Zposition Zrotation Xrotation Yrotation 
	JOINT Hips
	{
		OFFSET 4.5925 91.4895 -427.239
		CHANNELS 6 Xposition Yposition Zposition Zrotation Xrotation Yrotation 
		JOINT Spine
		{
			OFFSET 15.7357 0.0 0.0
			CHANNELS 6 Xposition Yposition Zposition Zrotation Xrotation Yrotation 
			JOINT Chest
			{
				OFFSET 8.98455 -0.406207 0.0
				CHANNELS 6 Xposition Yposition Zposition Zrotation Xrotation Yrotation 
				JOINT Neck
				{
					OFFSET 16.3773 0.0 0.0
					CHANNELS 6 Xposition Yposition Zposition Zrotation Xrotation Yrotation 
					JOINT Head
					{
						OFFSET 6.45672 0.0 0.0
						CHANNELS 6 Xposition Yposition Zposition Zrotation Xrotation Yrotation 
						End Site
						{
							OFFSET 0.0 0.0 0.0
						}
					}
				}
				JOINT Shoulder_L
				{
					OFFSET 12.9942 -0.242716 4.98039
					CHANNELS 6 Xposition Yposition Zposition Zrotation Xrotation Yrotation 
					JOINT UpperArm_L
					{
						OFFSET 5.34809 0.0 0.0
						CHANNELS 6 Xposition Yposition Zposition Zrotation Xrotation Yrotation 
						JOINT LowerArm_L
						{
							OFFSET 24.3286 1.87007e-05 0.0
							CHANNELS 6 Xposition Yposition Zposition Zrotation Xrotation Yrotation 
							JOINT Hand_L
							{
								OFFSET 22.2916 0.0 0.0
								CHANNELS 6 Xposition Yposition Zposition Zrotation Xrotation Yrotation 
								End Site
								{
									OFFSET 0.0 0.0 0.0
								}
							}
						}
					}
				}
				JOINT Shoulder_R
				{
					OFFSET 12.9945 -0.242716 -4.98039
					CHANNELS 6 Xposition Yposition Zposition Zrotation Xrotation Yrotation 
					JOINT UpperArm_R
					{
						OFFSET -5.34813 0.0 0.0
						CHANNELS 6 Xposition Yposition Zposition Zrotation Xrotation Yrotation 
						JOINT LowerArm_R
						{
							OFFSET -24.3289 0.000322201 0.0
							CHANNELS 6 Xposition Yposition Zposition Zrotation Xrotation Yrotation 
							JOINT Hand_R
							{
								OFFSET -22.2915 -0.000108084 0.0
								CHANNELS 6 Xposition Yposition Zposition Zrotation Xrotation Yrotation 
								End Site
								{
									OFFSET 0.0 0.0 0.0
								}
							}
						}
					}
				}
			}
		}
		JOINT UpperLeg_L
		{
			OFFSET -2.19248 -6.46944 0.0
			CHANNELS 6 Xposition Yposition Zposition Zrotation Xrotation Yrotation 
			JOINT LowerLeg_L
			{
				OFFSET 39.0811 0.0 -1.23785e-05
				CHANNELS 6 Xposition Yposition Zposition Zrotation Xrotation Yrotation 
				JOINT Foot_L
				{
					OFFSET 40.9854 0.0 -1.26872e-05
					CHANNELS 6 Xposition Yposition Zposition Zrotation Xrotation Yrotation 
					JOINT Toes_L
					{
						OFFSET 11.7543 0.0 0.0
						CHANNELS 6 Xposition Yposition Zposition Zrotation Xrotation Yrotation 
						End Site
						{
							OFFSET 0.0 0.0 0.0
						}
					}
				}
			}
		}
		JOINT UpperLeg_R
		{
			OFFSET -2.19251 6.46944 0.0
			CHANNELS 6 Xposition Yposition Zposition Zrotation Xrotation Yrotation 
			JOINT LowerLeg_R
			{
				OFFSET -39.0811 -0.00228153 -0.0401928
				CHANNELS 6 Xposition Yposition Zposition Zrotation Xrotation Yrotation 
				JOINT Foot_R
				{
					OFFSET -40.9854 0.0 0.0
					CHANNELS 6 Xposition Yposition Zposition Zrotation Xrotation Yrotation 
					JOINT Toes_R
					{
						OFFSET -11.7543 0.0 0.0
						CHANNELS 6 Xposition Yposition Zposition Zrotation Xrotation Yrotation 
						End Site
						{
							OFFSET 0.0 0.0 0.0
						}
					}
				}
			}
		}
	}
}
MOTION
Frames:	4
Frame Time:	0.0333333
0.000000 0.000000 0.000000 0.000000 0.000000 -0.000000 -1.013980 87.609900 -468.119000 90.555500 -1.554540 -10.282100 15.735700 0.000005 -0.000001 57.836100 81.430900 -55.005100 8.984550 -0.406207 -0.000000 7.042460 -9.110870 6.227100 16.377300 -0.000001 -0.000001 -1.982340 -6.370660 4.360820 6.456720 -0.000001 -0.000000 -14.511000 -4.801800 8.478370 12.994200 -0.242716 4.980390 -88.106500 -5.810970 -71.916500 5.348090 -0.000007 -0.000001 -65.635200 33.134800 -16.619300 24.328600 0.000019 0.000005 12.448700 -2.983520 -103.269000 22.291600 -0.000001 0.000005 7.219100 5.331700 -0.842171 12.994500 -0.242716 -4.980390 88.182900 4.808540 -69.269200 -5.348130 -0.000001 -0.000004 -66.037300 31.278700 19.554700 -24.328900 0.000322 -0.000009 -16.560300 1.128640 -93.787900 -22.291500 -0.000108 -0.000004 9.042600 5.476760 -5.621520 -2.192480 -6.469440 -0.000000 -177.623000 -1.833800 3.804140 39.081100 -0.000007 -0.000012 -0.015115 0.012617 50.154000 40.985400 -0.000006 -0.000013 -1.271730 -1.188700 -40.710800 11.754300 -0.000000 0.000003 -0.007546 -0.084296 -20.009000 -2.192510 6.469440 -0.000001 -171.340000 13.269200 145.093000 -39.081100 -0.002282 -0.040193 0.083056 -0.077354 45.889900 -40.985400 0.000008 0.000006 14.076700 0.210547 -72.260500 -11.754300 -0.000006 -0.000006 -0.006269 -0.073261 -19.554900
0.000000 0.000000 0.000000 0.000000 0.000000 -0.000000 -1.363680 84.790100 -462.243000 89.966200 -2.843260 -8.371820 15.735700 0.000005 -0.000001 67.243300 81.371700 -64.001000 8.984550 -0.406207 -0.000000 8.385980 -6.627270 6.970750 16.377300 -0.000001 -0.000001 -2.311720 -5.868640 3.988670 6.456720 -0.000001 -0.000000 -13.276300 -4.823130 8.001070 12.994200 -0.242716 4.980390 -89.183900 -2.552200 -72.256800 5.348090 -0.000007 -0.000001 -68.000800 31.110400 -10.540100 24.328600 0.000019 0.000005 13.634200 -1.998780 -98.185000 22.291600 -0.000001 0.000005 7.189830 5.382390 -2.365490 12.994500 -0.242716 -4.980390 86.890700 8.590490 -70.008800 -5.348130 -0.000001 -0.000004 -63.877900 30.339700 14.486400 -24.328900 0.000322 -0.000009 -17.625200 2.355030 -97.367500 -22.291500 -0.000108 -0.000004 10.850100 5.489810 -6.124060 -2.192480 -6.469440 -0.000000 -176.096000 -3.418900 -2.037240 39.081100 -0.000007 -0.000012 0.047953 -0.018815 68.570100 40.985400 -0.000006 -0.000013 -3.226880 -3.799420 -36.162500 11.754300 -0.000000 0.000003 -0.006545 -0.075717 -19.658800 -2.192510 6.469440 -0.000001 -172.863000 6.624810 147.467000 -39.081100 -0.002282 -0.040193 0.105999 -0.072671 54.735500 -40.985400 0.000008 0.000006 10.648400 -5.870010 -79.574900 -11.754300 -0.000006 -0.000006 -0.923667 -1.128320 -17.701600
0.000000 0.000000 0.000000 0.000000 0.000000 -0.000000 -1.828540 82.751500 -456.907000 88.478000 -3.545510 -6.524680 15.735700 0.000005 -0.000001 76.610800 80.730200 -72.534300 8.984550 -0.406207 -0.000000 10.452500 -4.168410 8.532770 16.377300 -0.000001 -0.000001 -3.572180 -5.086280 4.020250 6.456720 -0.000001 -0.000000 -13.019900 -4.055210 7.116970 12.994200 -0.242716 4.980390 -89.870400 -0.394510 -71.813200 5.348090 -0.000007 -0.000001 -72.565300 27.885900 -4.010930 24.328600 0.000019 0.000005 14.195100 0.506835 -88.009800 22.291600 -0.000001 0.000005 12.188600 5.433070 -4.034480 12.994500 -0.242716 -4.980390 86.037200 12.069900 -71.669400 -5.348130 -0.000001 -0.000004 -59.624300 30.101100 4.365060 -24.328900 0.000322 -0.000009 -18.314500 3.341480 -99.985800 -22.291500 -0.000108 -0.000004 13.818100 5.498830 -6.479540 -2.192480 -6.469440 -0.000000 -174.592000 -3.520150 -10.139000 39.081100 -0.000007 -0.000012 0.003638 -0.000218 86.432300 40.985400 -0.000006 -0.000013 0.258755 -4.976250 -37.130200 11.754300 -0.000000 0.000003 -0.007779 -0.086230 -20.087900 -2.192510 6.469440 -0.000001 -171.810000 6.326280 151.799000 -39.081100 -0.002282 -0.040193 0.142329 -0.084109 58.844100 -40.985400 0.000008 0.000006 10.296800 -7.005990 -85.303300 -11.754300 -0.000006 -0.000006 -1.414410 -1.728990 -17.981000
0.000000 0.000000 0.000000 0.000000 0.000000 -0.000000 -1.871220 81.845400 -451.522000 89.363500 -3.823320 -5.621810 15.735700 0.000005 -0.000001 84.387200 80.849100 -80.307100 8.984550 -0.406207 -0.000000 10.524700 -1.679180 8.310570 16.377300 -0.000001 -0.000001 -3.219960 -5.042170 4.279960 6.456720 -0.000001 -0.000000 -12.511400 -4.206850 7.003710 12.994200 -0.242716 4.980390 -89.833200 -0.501746 -71.615200 5.348090 -0.000007 -0.000001 -76.206400 27.160900 2.082810 24.328600 0.000019 0.000005 21.884400 4.553340 -78.827400 22.291600 -0.000001 0.000005 15.567400 5.382460 -2.400560 12.994500 -0.242716 -4.980390 86.141900 12.032100 -72.073600 -5.348130 -0.000001 -0.000004 -57.198500 31.130500 -7.459900 -24.328900 0.000322 -0.000009 -17.176100 4.272420 -103.558000 -22.291500 -0.000108 -0.000004 16.710300 5.500690 -6.563120 -2.192480 -6.469440 -0.000000 -176.412000 -2.922880 -19.448000 39.081100 -0.000007 -0.000012 -0.127695 -0.020032 98.919500 40.985400 -0.000006 -0.000013 4.932900 -5.438360 -41.161600 11.754300 -0.000000 0.000003 -0.008370 -0.091036 -20.284200 -2.192510 6.469440 -0.000001 -173.920000 9.236930 156.766000 -39.081100 -0.002282 -0.040193 0.139296 -0.080140 59.507800 -40.985400 0.000008 0.000006 10.507600 -4.790290 -89.407400 -11.754300 -0.000006 -0.000006 -2.119980 -2.595290 -18.498900
